<svg width="14" height="13" viewBox="0 0 14 13" fill="none" xmlns="http://www.w3.org/2000/svg">
<path fill-rule="evenodd" clip-rule="evenodd" d="M14 6.22224C14 6.42115 13.921 6.61191 13.7803 6.75256C13.6397 6.89322 13.4489 6.97224 13.25 6.97224L2.61201 6.97224L6.77001 10.9322C6.9064 11.0717 6.98312 11.2587 6.9839 11.4538C6.98467 11.6488 6.90943 11.8365 6.77414 11.977C6.63885 12.1174 6.45416 12.1997 6.25923 12.2063C6.0643 12.2129 5.87447 12.1433 5.73001 12.0122L0.230007 6.76224C0.157421 6.69227 0.0996842 6.60839 0.0602486 6.51561C0.020813 6.42283 0.000488024 6.32305 0.00048802 6.22224C0.000488015 6.12142 0.020813 6.02164 0.0602486 5.92886C0.0996842 5.83608 0.157421 5.7522 0.230007 5.68224L5.73001 0.432235C5.8002 0.360488 5.88408 0.303559 5.97668 0.264824C6.06928 0.226088 6.16871 0.206334 6.26908 0.206731C6.36945 0.207127 6.46873 0.227668 6.56101 0.267135C6.6533 0.306602 6.73673 0.364193 6.80635 0.436494C6.87598 0.508794 6.93038 0.594335 6.96634 0.688047C7.00229 0.781759 7.01908 0.881735 7.01569 0.982052C7.0123 1.08237 6.98881 1.18098 6.9466 1.27205C6.9044 1.36313 6.84435 1.4448 6.77001 1.51224L2.61201 5.47224L13.25 5.47224C13.4489 5.47224 13.6397 5.55125 13.7803 5.69191C13.921 5.83256 14 6.02332 14 6.22224Z" fill="black"/>
</svg>
