<svg width="103" height="101" viewBox="0 0 103 101" fill="none" xmlns="http://www.w3.org/2000/svg">
<mask id="mask0_5_152" style="mask-type:luminance" maskUnits="userSpaceOnUse" x="2" y="1" width="99" height="99">
<path d="M51.5 97.8232C57.7191 97.8312 63.8784 96.6102 69.6241 94.2302C75.3697 91.8502 80.5884 88.3581 84.9801 83.9548C89.3835 79.563 92.8755 74.3444 95.2555 68.5987C97.6355 62.8531 98.8566 56.6938 98.8485 50.4747C98.8564 44.2556 97.6353 38.0963 95.2553 32.3507C92.8753 26.6051 89.3834 21.3864 84.9801 16.9946C80.5884 12.5912 75.3697 9.09921 69.6241 6.7192C63.8784 4.3392 57.7191 3.11814 51.5 3.1262C45.281 3.11827 39.1217 4.33939 33.376 6.71939C27.6304 9.09938 22.4117 12.5913 18.0199 16.9946C13.6167 21.3864 10.1247 26.6051 7.74472 32.3507C5.36472 38.0963 4.1436 44.2556 4.15153 50.4747C4.14347 56.6938 5.36453 62.8531 7.74453 68.5987C10.1245 74.3444 13.6166 79.563 18.0199 83.9548C22.4117 88.358 27.6304 91.85 33.376 94.23C39.1217 96.61 45.281 97.8311 51.5 97.8232Z" fill="white" stroke="white" stroke-width="4" stroke-linejoin="round"/>
<path d="M32.5606 50.4747L46.7652 64.6792L75.1742 36.2701" stroke="black" stroke-width="4" stroke-linecap="round" stroke-linejoin="round"/>
</mask>
<g mask="url(#mask0_5_152)">
<path d="M-5.31818 -6.34351H108.318V107.293H-5.31818V-6.34351Z" fill="#246BFD"/>
</g>
</svg>
