<svg width="19" height="17" viewBox="0 0 19 17" fill="none" xmlns="http://www.w3.org/2000/svg">
<path d="M18.2897 15.7022C16.9441 13.5034 14.8706 11.9267 12.4508 11.1793C13.6478 10.5057 14.5777 9.47942 15.0979 8.25793C15.618 7.03644 15.6996 5.68732 15.3301 4.41776C14.9606 3.1482 14.1604 2.02839 13.0524 1.23031C11.9445 0.43223 10.59 0 9.19698 0C7.80398 0 6.44949 0.43223 5.34153 1.23031C4.23356 2.02839 3.43338 3.1482 3.06386 4.41776C2.69434 5.68732 2.77593 7.03644 3.29608 8.25793C3.81623 9.47942 4.74619 10.5057 5.94315 11.1793C3.52332 11.9259 1.44981 13.5026 0.104282 15.7022C0.0549389 15.7783 0.0222102 15.8629 0.00802651 15.9511C-0.00615714 16.0393 -0.00150833 16.1293 0.0216987 16.2158C0.0449056 16.3022 0.0862008 16.3834 0.143147 16.4546C0.200094 16.5257 0.271539 16.5854 0.353266 16.63C0.434994 16.6746 0.525349 16.7033 0.619 16.7144C0.712651 16.7255 0.807701 16.7187 0.898542 16.6945C0.989384 16.6703 1.07418 16.6291 1.14792 16.5735C1.22166 16.5178 1.28285 16.4487 1.32789 16.3703C2.99235 13.6512 5.93432 12.0278 9.19698 12.0278C12.4596 12.0278 15.4016 13.6512 17.0661 16.3703C17.1111 16.4487 17.1723 16.5178 17.246 16.5735C17.3198 16.6291 17.4046 16.6703 17.4954 16.6945C17.5863 16.7187 17.6813 16.7255 17.775 16.7144C17.8686 16.7033 17.959 16.6746 18.0407 16.63C18.1224 16.5854 18.1939 16.5257 18.2508 16.4546C18.3078 16.3834 18.3491 16.3022 18.3723 16.2158C18.3955 16.1293 18.4001 16.0393 18.3859 15.9511C18.3717 15.8629 18.339 15.7783 18.2897 15.7022ZM4.24953 6.01501C4.24953 5.09008 4.5397 4.18591 5.08333 3.41685C5.62696 2.64779 6.39965 2.04838 7.30367 1.69442C8.2077 1.34046 9.20247 1.24785 10.1622 1.4283C11.1219 1.60874 12.0034 2.05414 12.6953 2.70817C13.3873 3.36221 13.8585 4.19549 14.0494 5.10266C14.2403 6.00983 14.1423 6.95013 13.7678 7.80466C13.3934 8.6592 12.7592 9.38958 11.9456 9.90345C11.132 10.4173 10.1755 10.6916 9.19698 10.6916C7.88527 10.6903 6.62768 10.1971 5.70016 9.32039C4.77263 8.44365 4.25094 7.25491 4.24953 6.01501Z" fill="#6A6A6A"/>
</svg>
